<?xml version="1.0" encoding="utf-8"?>
<!DOCTYPE svg PUBLIC "-//W3C//DTD SVG 1.1//EN" "http://www.w3.org/Graphics/SVG/1.1/DTD/svg11.dtd">
<svg version="1.1" xmlns="http://www.w3.org/2000/svg" xmlns:xlink="http://www.w3.org/1999/xlink" x="0px" y="0px"
	 width="284px" height="76px" viewBox="0 0 284 76" style="enable-background:new 0 0 284 76;" xml:space="preserve">
		<path style="fill:#fff;" d="M46.4,44H32.2L28.7,34H14.8L10.5,44H0L18.2,2h11.3L46.4,44z M26.6,27.4l-4.5-13.1l-5,13.1H26.6zM79.2,44H65.8c-0.3-1-0.4-2.1-0.4-3.3c-3,2.7-6.3,4-10,4c-2.6,0-4.8-0.9-6.7-2.7
			c-1.9-1.8-2.9-3.9-2.9-6.4c0-3.3,1.5-6,4.5-8.3c2.2-1.6,5.6-2.9,10.2-3.8l5.2-1c-1.2-2-3.1-3-5.7-3c-2.5,0-5.2,1.1-7.9,3.2
			l-3.6-5.3c4.5-2.8,9.4-4.1,14.6-4.1c5.9,0,10.1,1.5,12.6,4.6c1.5,1.8,2.2,5.1,2.2,9.7v7C78,38.6,78.4,41.8,79.2,44z M65.7,31.3
			v-2.7c-0.5,0.1-1.4,0.3-2.7,0.7c-3.8,1-5.7,2.6-5.7,4.8c0,0.9,0.3,1.7,1,2.4c0.7,0.7,1.4,1.1,2.3,1.1c0.9,0,1.7-0.2,2.5-0.7
			c0.8-0.5,1.4-1.1,1.8-1.9C65.5,33.9,65.7,32.7,65.7,31.3zM110.6,15.7l-3.5,8.9c-1.2-0.5-2.5-0.8-3.9-0.8c-3.1,0-5.1,1.3-6.1,4c-0.4,1-0.6,2.9-0.6,5.8V44
			H83.8V14h12.6v7l1-1.9c1.9-3.8,4.2-5.8,6.8-5.8C106.1,13.3,108.2,14.1,110.6,15.7zM146.3,44h-12.4v-4c-1.8,1.8-3.4,3-4.9,3.7c-1.5,0.7-3.3,1-5.3,1c-4.5,0-8-1.6-10.6-4.9
			c-2.3-2.9-3.5-6.6-3.5-10.9c0-4.5,1.4-8.3,4.1-11.2c2.7-3,6.2-4.4,10.4-4.4c4.2,0,7.4,1.6,9.8,4.7V0h12.4V44z M133.9,29
			c0-6.2-1.9-9.3-5.7-9.3c-1.6,0-2.9,0.8-3.9,2.5c-0.9,1.7-1.4,3.9-1.4,6.8c0,2.9,0.5,5.2,1.5,7c1,1.8,2.4,2.7,4,2.7
			c1.6,0,2.9-0.9,3.9-2.6C133.4,34.3,133.9,31.9,133.9,29zM182.8,14.9L169,44h-9.3l-12-29.2l12.8-1.4l5.6,17.4l6.5-17.4L182.8,14.9zM215.5,44h-13.4c-0.3-1-0.4-2.1-0.4-3.3c-3,2.7-6.3,4-10,4c-2.6,0-4.8-0.9-6.7-2.7
			c-1.9-1.8-2.9-3.9-2.9-6.4c0-3.3,1.5-6,4.5-8.3c2.2-1.6,5.6-2.9,10.2-3.8l5.2-1c-1.2-2-3.1-3-5.7-3c-2.5,0-5.2,1.1-7.9,3.2
			l-3.6-5.3c4.5-2.8,9.4-4.1,14.6-4.1c5.9,0,10.1,1.5,12.6,4.6c1.5,1.8,2.2,5.1,2.2,9.7v7C214.4,38.6,214.8,41.8,215.5,44z
			 M202,31.3v-2.7c-0.5,0.1-1.4,0.3-2.7,0.7c-3.8,1-5.7,2.6-5.7,4.8c0,0.9,0.3,1.7,1,2.4c0.7,0.7,1.4,1.1,2.3,1.1s1.7-0.2,2.5-0.7
			c0.8-0.5,1.4-1.1,1.8-1.9C201.8,33.9,202,32.7,202,31.3zM246.9,15.7l-3.5,8.9c-1.2-0.5-2.5-0.8-3.9-0.8c-3.1,0-5.1,1.3-6.1,4c-0.4,1-0.6,2.9-0.6,5.8V44
			h-12.6V14h12.6v7l1-1.9c1.9-3.8,4.2-5.8,6.8-5.8C242.5,13.3,244.6,14.1,246.9,15.7zM283.5,41.5l-12,3.2l-10.6-15.8V44h-12.6V0h12.6v25.4h0.9l9.4-11.9l9.8,3L271.9,27L283.5,41.5zM104.7,75.5h1.8v-12h0l5.4,12h1.1l5.4-12h0v12h1.8V61.2h-2.6l-5.2,11.2h0l-5.1-11.2h-2.7V75.5zM125.8,75.5h9.9v-1.6h-8.1v-5.1h7.2v-1.6h-7.2v-4.5h7.7v-1.6h-9.5V75.5zM140.8,75.5h5.8c3,0,7.4-1.9,7.4-7.1c0-5.3-4.5-7.1-7.4-7.1h-5.8V75.5z M142.6,62.8h3.4
			c3.5,0,6.1,1.7,6.1,5.6c0,3.9-2.6,5.6-6.1,5.6h-3.4V62.8zM158.2,75.5h1.8V61.2h-1.8V75.5zM163.9,75.5h2l1.6-3.5h7.6l1.5,3.5h2.1l-6.4-14.2h-1.7L163.9,75.5z M174.4,70.4h-6.2l3.1-7h0
			L174.4,70.4zM0,67.5h84.9v1.8H0V67.5zM198.6,67.5h84.9v1.8h-84.9V67.5z"/>
</svg>
