<svg xmlns="http://www.w3.org/2000/svg" width="102" height="119"><path fill="#7C838D" d="M97 84c-.4 1.9-12.7 16-21.8 21.2l-10.2-10.2c1.3-.3 22-16.6 22.4-17.8 1.5-4.6 2.6-12.2 2.8-14.7.7-7.2-8.2-25.3-13.2-31.5-1.3-1.6-24.5-8-26-7.8-4 .7-8 .6-11.6 1.8l2 7.1-18-7.8 9.6-17.3 5 8c4.5-1.4 8-1.6 13-1.6 7.3 0 14.6 1.3 21 3.6 2.8 1 21.9 16.6 23 20 2.5 7.9 6.9 22.8 7 25 .1 1.4-4.6 20.1-5 22zm-26 24l-16 11v-6c-1.3-.1-16.3-.8-17-1-8.7-3.1-19.7-10.7-23-14-1.9-1.9-15-31.6-15-33 0-3.6 10.3-31 20-37l11 7c-1.1.9-20.3 25.7-20 28 1.2 8.2 7.3 19.7 11 26 1 1.7 15.6 9.7 18 11l16.6 1.4-.1-7.4 14.5 14z"/><path fill="#4D0E4A" d="M75 42c-.5-.4-6.7-1.7-7-2l-39 35-2.9 6.1 7.9-1.1 44-31c-.2.1-2.5-6.6-3-7z"/><path fill="#B220AD" d="M29 75l4-8 23-15c.3.3 3.5.6 4 1s-18.2 26.1-18 26l-8 1-5-5z"/><path fill="#CC4EC8" d="M37 73l-4-6 32-24c.5.6 9.6 8.2 10 8l-34 28-4-6z"/></svg>