<svg xmlns="http://www.w3.org/2000/svg" width="121" height="119"><path fill="#7C838D" d="M21.6 112.7h-11.2l-.9-95.7 12.5 1.8-.4 93.9zm8.5 0l-1.7-34 12.8-.7v33.7l-11.1 1zm19.5 0l-1.3-69.3 12.2 1.3v69.3l-10.9-1.3zm19.3 0l-1-52.8h12.4v51.4l-11.4 1.4zm21.1 0l-3-94.3 12.8-1.4v94.5l-9.8 1.2z"/><polygon fill="#B220AD" points="121,61.7 107.8,58.4 109.9,63.2 45.9,98.1 1.8,68.8 0,81.8 45.9,104.5 113.3,70.2 114.9,73.8 121,61.7"/><path fill="#FF7AFB" d="M21.6 92.5l-11.6-5.8-.1-12.5 11.8 7.8-.1 10.5zm7.6 3.7l-.5-9.6 12.4 8.3v7.2l-11.9-5.9zm20.2 6.5l-.1-6.4 11.2-6.1v6.9l-11.1 5.6zm19-9.7l-.1-7.1 11.9-6.5v7.6l-11.8 6zm20.6-10.4l-.3-7.9 11-6v8.4l-10.7 5.5z"/></svg>