<svg xmlns="http://www.w3.org/2000/svg" width="104" height="119"><path fill="#4B5050" d="M31 96h11l-6 13s-3.3 2-3.6 2c-.3 0-3.4-3-3.4-3l2-12zm32 0l6 13s3.3 2 3.6 2c.3 0 3.4-3 3.4-3l-2-12h-11zm38-76c0-.8-4.4-5-5-5l-37 2v-3s-3.3-2-3.6-2c-.3 0-3.4 3-3.4 3v2.4l-7 .4v-3.8s-3.3-2-3.6-2c-.3 0-3.4 3-3.4 3v3.1l-35 1.9c-.3 0-3 2.9-3 3l3 66c0 .8 4.2 5 5 5h88s8-7.7 8-8l-3-66z"/><path fill="#fff" d="M13 26l78-2c1.1 0 2 .9 2 2v57c0 1.1-.9 2-2 2h-80c-1.1 0-2-.9-2-2l2-55c0-1.1.9-2 2-2z"/><polygon fill="#43A7A7" points="17,70.9 50.7,70.9 54,78 17,77.7 17,70.9"/><polygon fill="#D78732" points="25.2,56.3 85.5,56.3 88,64 24,63 25.2,56.3"/><polygon fill="#AA2BFF" points="37,41 79,38 77,47.6 38.7,47.6 37,41"/></svg>