<svg xmlns="http://www.w3.org/2000/svg" width="151" height="119"><path fill="#D3843D" d="M0 38.6c0-.3.5-5.2.7-6 .3-.9 4.6-4.1 5.3-4.5 4.1-2.1 10.6-3.1 11.3-3.1.4 0 11.5 2.9 12 3.1.3.2 5.5 3 6 3.7.5.7.8 6.7.8 6.8 0 .4-4.2 4.8-4.5 5.1-.6.5-8 2.3-8.4 2.3.1 0 2.2 6.1 2.2 6-.5 0-9.5-4.9-9.7-5.2-.6 0-8.1-1.6-9.7-2.2-1-.4-6-5.6-6-6zm151 53.4c0-.4-.7-6.9-1-8-.4-1.2-6.1-5.5-7-6-5.4-2.8-14.2-4.2-15-4.2-.6 0-15.3 3.9-16 4.2-.4.2-7.3 4-8 5-.6 1-1.1 8.9-1 9.1 0 .6 5.5 6.5 6 6.9.6.5 10.5 3 11 3-.1 0-2.9 8.1-3 8 .7 0 12.7-6.5 13-7 .8 0 10.9-2.2 13-3 1.3-.5 8-7.4 8-8z"/><path fill="#414747" d="M48.3 98.5c0-1.9-1.4-2-3-2.6l-7.5-3-.4-.2c-1.3-.6-2.5-1.4-3-2l-.1-.1c-.2-.3-.4-.4-.6-.4-.2.1-.2 0-.2-.2-.2-.6-.5-1.6-.6-1.7-.1-.3-.3.5-.2-.3l.1-1.4c.1-.2.2-.3.3-.4.5-.6.5-2 .8-2.4.2-.4.7-.4 1.2-2.1.5-1.7 1.1-4.1.5-4.1-.2 0-.3.1-.5.2.1-.6.3-2 .4-3 .1-1.4-.2-4.8-.9-6.1-.6-1-1.6-1.8-2.6-2.4-.6-.4-1.2-.7-1.6-.9-1.4-.6-5.9-.3-7.4 0-1.7.4-2.9 1.5-3.7 2.7-.8 1.3-1.1 5.1-1 6.5 0 .6.4 1.6.5 2.3.1.3.1.3.1.6h-.2c-.6 0 0 2.4.5 4.1.5 1.7 1 1.8 1.2 2.1.2.4.3 1.8.8 2.4.1.1.2.2.3.4l.1 1.2.2.7c-.1-.2-.2-.3-.3-.1l-.6 1.9-.1-.1c-.2-.2-.5 0-.7.4-.4.6-1.6 1.5-3 2.2v.2l-.3.1-7.5 3c-1.6.6-3 .7-3 2.6l-1.2 6.5h44.9l-1.7-6.6z"/><path fill="#7C838D" d="M98.4 27.2l-15.7-7.2-23.6 4.3v.2c-.2.2-2.4 3.1-6.3 9.1l-5.5 8.9-.3.6 17.4 3.8 2.4-7.2 7.7-5.3 12.1 3.8v15.6l-17.4 5.3c-.2.2-.5 1.2-1.2 3.1-.5 1.4-.7 2.4-1 3.1-.2 3.1-.5 6-.5 8.9v8.4l18.3-3.1-1-6c-.7-4.1-1-6-.7-6.3 5.1-.2 7.5-.2 7.5-.5l6.3-5.5c1.2-1 1.9-1.9 2.6-2.9l5.3-12v-.3l-6.4-18.8zm41.4 2.8l-5.4-3.6-9 .4v.1c-.1.1-1.1 1.1-2.8 3.1l-2.5 3.1-.1.2 6.2 2.4 1.3-2.6 3.1-1.6 4.2 2.1-.9 6-6.7 1.1-.6 1.1c-.3.5-.4.9-.5 1.1-.3 1.2-.5 2.3-.7 3.4l-.5 3.2 6.9-.2v-2.3c0-1.6 0-2.3.1-2.4 1.9.2 2.8.3 2.8.2l2.6-1.8c.5-.3.8-.6 1.1-1l2.6-4.3v-.2l-1.2-7.5z"/><path fill="#208BB2" d="M84.9 91.9v13l-9.2 4.1-8-3.1-2.9-11.5 9.4-7.2 10.7 4.7zm42.7-40.4l-3.9 2.2.4 4.6 2.8 1.6 3.6-1.1.7-4.9-3.6-2.4z"/></svg>