<svg version="1.1" xmlns="http://www.w3.org/2000/svg" xmlns:xlink="http://www.w3.org/1999/xlink" x="0px" y="0px"
	 width="200px" height="114px" viewBox="0 0 200 114" style="enable-background:new 0 0 200 114;" xml:space="preserve"><path fill="#fff" d="M25.1,38.6c2-8.8,65.8-85.2,120.6,5.1c9.7,16,0.6,40.6,53.2,65.4c6.4,3-17.3,5.8-42.9-15.2c-9.5-7.8-17.9-22.4-17.9-22.4l5.7,42.5h-16l-2.7-5.4l8-5.4l-13-22.6l-27,31.9h-7.4v-7.4l4.9-2.5l9.8-17.2L85.9,68.3h-7.4L68.7,83L81,102.7l-0.6,4.2l-4.3-1.8l2.5,4.9v2.5L54,90.4L50.2,112l-3.6,0.5l-3.9-5.6l-1,5.6H29.5l10.7-10.6l2.5-32.9L7.5,112L0,104.4l17.2-43.4c0,0-10.3-19.4-12.3-42.6c0-0.5,11.7,16.4,11.7,16.4l2.1-13C18.7,21.7,24.8,39.8,25.1,38.6z"/></svg>
